<svg width="343" height="57" viewBox="0 0 343 57" fill="none" xmlns="http://www.w3.org/2000/svg">
<path d="M1.782 21.9H4.086V30.846L10.854 21.9H13.032V34.5H10.728V25.572L3.96 34.5H1.782V21.9ZM16.3128 24.888H18.5628V28.794H23.4048V24.888H25.6548V34.5H23.4048V30.702H18.5628V34.5H16.3128V24.888ZM36.2842 26.796H32.9182V34.5H30.6682V26.796H27.2842V24.888H36.2842V26.796ZM46.4944 29.748C46.4944 29.904 46.4824 30.126 46.4584 30.414H38.9164C39.0484 31.122 39.3904 31.686 39.9424 32.106C40.5064 32.514 41.2024 32.718 42.0304 32.718C43.0864 32.718 43.9564 32.37 44.6404 31.674L45.8464 33.06C45.4144 33.576 44.8684 33.966 44.2084 34.23C43.5484 34.494 42.8044 34.626 41.9764 34.626C40.9204 34.626 39.9904 34.416 39.1864 33.996C38.3824 33.576 37.7584 32.994 37.3144 32.25C36.8824 31.494 36.6664 30.642 36.6664 29.694C36.6664 28.758 36.8764 27.918 37.2964 27.174C37.7284 26.418 38.3224 25.83 39.0784 25.41C39.8344 24.99 40.6864 24.78 41.6344 24.78C42.5704 24.78 43.4044 24.99 44.1364 25.41C44.8804 25.818 45.4564 26.4 45.8644 27.156C46.2844 27.9 46.4944 28.764 46.4944 29.748ZM41.6344 26.58C40.9144 26.58 40.3024 26.796 39.7984 27.228C39.3064 27.648 39.0064 28.212 38.8984 28.92H44.3524C44.2564 28.224 43.9624 27.66 43.4704 27.228C42.9784 26.796 42.3664 26.58 41.6344 26.58ZM54.2834 24.78C55.2194 24.78 56.0534 24.984 56.7854 25.392C57.5294 25.8 58.1114 26.376 58.5314 27.12C58.9514 27.864 59.1614 28.722 59.1614 29.694C59.1614 30.666 58.9514 31.53 58.5314 32.286C58.1114 33.03 57.5294 33.606 56.7854 34.014C56.0534 34.422 55.2194 34.626 54.2834 34.626C52.9874 34.626 51.9614 34.194 51.2054 33.33V37.992H48.9554V24.888H51.0974V26.148C51.4694 25.692 51.9254 25.35 52.4654 25.122C53.0174 24.894 53.6234 24.78 54.2834 24.78ZM54.0314 32.7C54.8594 32.7 55.5374 32.424 56.0654 31.872C56.6054 31.32 56.8754 30.594 56.8754 29.694C56.8754 28.794 56.6054 28.068 56.0654 27.516C55.5374 26.964 54.8594 26.688 54.0314 26.688C53.4914 26.688 53.0054 26.814 52.5734 27.066C52.1414 27.306 51.7994 27.654 51.5474 28.11C51.2954 28.566 51.1694 29.094 51.1694 29.694C51.1694 30.294 51.2954 30.822 51.5474 31.278C51.7994 31.734 52.1414 32.088 52.5734 32.34C53.0054 32.58 53.4914 32.7 54.0314 32.7ZM66.2247 28.056C67.4487 28.056 68.3847 28.332 69.0327 28.884C69.6927 29.436 70.0227 30.216 70.0227 31.224C70.0227 32.28 69.6627 33.096 68.9427 33.672C68.2227 34.248 67.2087 34.53 65.9007 34.518L61.4007 34.5V24.888H63.6507V28.038L66.2247 28.056ZM65.7027 32.862C66.3627 32.874 66.8667 32.736 67.2147 32.448C67.5627 32.16 67.7367 31.74 67.7367 31.188C67.7367 30.648 67.5687 30.252 67.2327 30C66.8967 29.748 66.3867 29.616 65.7027 29.604L63.6507 29.586V32.844L65.7027 32.862ZM81.0003 29.748C81.0003 29.904 80.9883 30.126 80.9643 30.414H73.4223C73.5543 31.122 73.8963 31.686 74.4483 32.106C75.0123 32.514 75.7083 32.718 76.5363 32.718C77.5923 32.718 78.4623 32.37 79.1463 31.674L80.3523 33.06C79.9203 33.576 79.3743 33.966 78.7143 34.23C78.0543 34.494 77.3103 34.626 76.4823 34.626C75.4263 34.626 74.4963 34.416 73.6923 33.996C72.8883 33.576 72.2643 32.994 71.8203 32.25C71.3883 31.494 71.1723 30.642 71.1723 29.694C71.1723 28.758 71.3823 27.918 71.8023 27.174C72.2343 26.418 72.8283 25.83 73.5843 25.41C74.3403 24.99 75.1923 24.78 76.1403 24.78C77.0763 24.78 77.9103 24.99 78.6423 25.41C79.3863 25.818 79.9623 26.4 80.3703 27.156C80.7903 27.9 81.0003 28.764 81.0003 29.748ZM76.1403 26.58C75.4203 26.58 74.8083 26.796 74.3043 27.228C73.8123 27.648 73.5123 28.212 73.4043 28.92H78.8583C78.7623 28.224 78.4683 27.66 77.9763 27.228C77.4843 26.796 76.8723 26.58 76.1403 26.58ZM88.7892 24.78C89.7252 24.78 90.5592 24.984 91.2912 25.392C92.0352 25.8 92.6172 26.376 93.0372 27.12C93.4572 27.864 93.6672 28.722 93.6672 29.694C93.6672 30.666 93.4572 31.53 93.0372 32.286C92.6172 33.03 92.0352 33.606 91.2912 34.014C90.5592 34.422 89.7252 34.626 88.7892 34.626C87.4932 34.626 86.4672 34.194 85.7112 33.33V37.992H83.4612V24.888H85.6032V26.148C85.9752 25.692 86.4312 25.35 86.9712 25.122C87.5232 24.894 88.1292 24.78 88.7892 24.78ZM88.5372 32.7C89.3652 32.7 90.0432 32.424 90.5712 31.872C91.1112 31.32 91.3812 30.594 91.3812 29.694C91.3812 28.794 91.1112 28.068 90.5712 27.516C90.0432 26.964 89.3652 26.688 88.5372 26.688C87.9972 26.688 87.5112 26.814 87.0792 27.066C86.6472 27.306 86.3052 27.654 86.0532 28.11C85.8012 28.566 85.6752 29.094 85.6752 29.694C85.6752 30.294 85.8012 30.822 86.0532 31.278C86.3052 31.734 86.6472 32.088 87.0792 32.34C87.5112 32.58 87.9972 32.7 88.5372 32.7ZM96.4148 34.626C96.0068 34.626 95.6588 34.488 95.3708 34.212C95.0828 33.924 94.9388 33.564 94.9388 33.132C94.9388 32.688 95.0768 32.328 95.3528 32.052C95.6408 31.776 95.9948 31.638 96.4148 31.638C96.8348 31.638 97.1828 31.776 97.4588 32.052C97.7468 32.328 97.8908 32.688 97.8908 33.132C97.8908 33.564 97.7468 33.924 97.4588 34.212C97.1708 34.488 96.8228 34.626 96.4148 34.626Z" fill="white"/>
<g clip-path="url(#clip0_1_249)">
<path d="M232.507 35.0087L232.507 35.0087C232.59 35.0915 232.688 35.1572 232.796 35.2021C232.905 35.2469 233.021 35.27 233.138 35.27C233.255 35.27 233.371 35.2469 233.479 35.2021C233.587 35.1572 233.686 35.0915 233.769 35.0087C233.851 34.9258 233.917 34.8275 233.962 34.7192C234.007 34.611 234.03 34.495 234.03 34.3779C234.03 34.2607 234.007 34.1447 233.962 34.0365C233.917 33.9282 233.851 33.8299 233.769 33.747L233.769 33.747L230.437 30.4161C231.402 29.1351 231.855 27.5386 231.704 25.9396C231.55 24.3107 230.782 22.8015 229.555 21.7191C228.328 20.6367 226.735 20.0624 225.099 20.113C223.464 20.1636 221.909 20.8354 220.751 21.9915C219.593 23.1485 218.919 24.7038 218.867 26.3404C218.815 27.9769 219.389 29.5717 220.473 30.7997C221.556 32.0276 223.066 32.7963 224.697 32.9492C226.297 33.0992 227.895 32.6446 229.176 31.6767L232.507 35.0087ZM228.59 23.2538C229.027 23.6843 229.375 24.1972 229.613 24.7628C229.852 25.3285 229.976 25.9357 229.978 26.5496C229.981 27.1634 229.862 27.7716 229.628 28.3392C229.394 28.9068 229.05 29.4225 228.616 29.8565C228.182 30.2906 227.667 30.6344 227.099 30.8682C226.532 31.1019 225.923 31.221 225.309 31.2185C224.696 31.216 224.088 31.092 223.523 30.8536C222.957 30.6152 222.444 30.2672 222.014 29.8297C221.153 28.9552 220.673 27.7762 220.678 26.5496C220.683 25.3229 221.173 24.1479 222.04 23.2805C222.908 22.413 224.083 21.9235 225.309 21.9185C226.536 21.9135 227.715 22.3935 228.59 23.2538Z" fill="white" stroke="white" stroke-width="0.2"/>
</g>
<rect x="266.801" y="18.8999" width="4.57143" height="4.57143" fill="white"/>
<rect x="266.801" y="26.2141" width="4.57143" height="4.57143" fill="white"/>
<rect x="266.801" y="33.5283" width="4.57143" height="4.57143" fill="white"/>
<rect x="274.114" y="26.2141" width="4.57143" height="4.57143" fill="white"/>
<rect x="274.114" y="33.5283" width="4.57143" height="4.57143" fill="white"/>
<rect x="274.114" y="18.8999" width="4.57143" height="4.57143" fill="white"/>
<rect x="281.429" y="26.2141" width="4.57143" height="4.57143" fill="white"/>
<rect x="281.429" y="33.5283" width="4.57143" height="4.57143" fill="white"/>
<rect x="281.429" y="18.8999" width="4.57143" height="4.57143" fill="white"/>
<path d="M332.583 36.8334C333.136 36.8334 333.666 36.6139 334.057 36.2232C334.447 35.8325 334.667 35.3026 334.667 34.7501C334.667 34.1975 334.447 33.6676 334.057 33.2769C333.666 32.8862 333.136 32.6667 332.583 32.6667C332.031 32.6667 331.501 32.8862 331.11 33.2769C330.72 33.6676 330.5 34.1975 330.5 34.7501C330.5 35.3026 330.72 35.8325 331.11 36.2232C331.501 36.6139 332.031 36.8334 332.583 36.8334ZM325.292 36.8334C325.844 36.8334 326.374 36.6139 326.765 36.2232C327.156 35.8325 327.375 35.3026 327.375 34.7501C327.375 34.1975 327.156 33.6676 326.765 33.2769C326.374 32.8862 325.844 32.6667 325.292 32.6667C324.739 32.6667 324.209 32.8862 323.819 33.2769C323.428 33.6676 323.208 34.1975 323.208 34.7501C323.208 35.3026 323.428 35.8325 323.819 36.2232C324.209 36.6139 324.739 36.8334 325.292 36.8334ZM338.873 22.1699C339.133 22.1615 339.38 22.0523 339.561 21.8654C339.742 21.6785 339.843 21.4285 339.843 21.1683C339.843 20.9081 339.742 20.6582 339.561 20.4712C339.38 20.2843 339.133 20.1751 338.873 20.1667H337.674C336.734 20.1667 335.922 20.8188 335.718 21.7355L334.413 27.6126C334.208 28.5292 333.396 29.1813 332.456 29.1813H324.631L323.129 23.1709H332.864C333.121 23.1592 333.364 23.0486 333.542 22.8621C333.721 22.6757 333.82 22.4277 333.82 22.1699C333.82 21.912 333.721 21.6641 333.542 21.4776C333.364 21.2912 333.121 21.1806 332.864 21.1688H323.129C322.825 21.1687 322.524 21.2381 322.251 21.3716C321.977 21.5051 321.737 21.6992 321.55 21.9392C321.362 22.1793 321.232 22.4588 321.169 22.7567C321.106 23.0546 321.112 23.363 321.185 23.6584L322.688 29.6667C322.796 30.1003 323.046 30.4852 323.398 30.7602C323.75 31.0352 324.184 31.1845 324.631 31.1845H332.456C333.368 31.1846 334.252 30.8738 334.964 30.3033C335.675 29.7329 336.17 28.9369 336.368 28.047L337.674 22.1699H338.873Z" fill="white"/>
<defs>
<clipPath id="clip0_1_249">
<rect width="19" height="19" fill="white" transform="translate(215.801 19)"/>
</clipPath>
</defs>
</svg>
