<svg width="24" height="21" viewBox="0 0 24 21" fill="none" xmlns="http://www.w3.org/2000/svg">
<path d="M23.8557 3.11685C22.965 3.51083 22.0205 3.76957 21.0533 3.88452C22.0727 3.27486 22.8357 2.31537 23.2 1.18485C22.2433 1.75419 21.1945 2.15319 20.1013 2.36902C19.3671 1.58336 18.3938 1.06231 17.3328 0.886869C16.2718 0.711427 15.1826 0.891426 14.2345 1.39888C13.2864 1.90634 12.5325 2.71282 12.09 3.69295C11.6475 4.67307 11.5412 5.77193 11.7877 6.81869C9.84764 6.72145 7.94974 6.2173 6.21718 5.33896C4.48463 4.46063 2.95616 3.22774 1.73102 1.72035C1.29735 2.46521 1.06946 3.31195 1.07068 4.17385C1.07068 5.86552 1.93168 7.36002 3.24068 8.23502C2.46603 8.21063 1.70842 8.00143 1.03102 7.62485V7.68552C1.03125 8.81217 1.42111 9.90407 2.1345 10.7761C2.8479 11.6481 3.84091 12.2466 4.94518 12.47C4.22607 12.6649 3.47204 12.6936 2.74018 12.554C3.05153 13.5238 3.65836 14.3719 4.47571 14.9796C5.29306 15.5874 6.28 15.9243 7.29835 15.9432C6.28624 16.7381 5.12739 17.3257 3.88804 17.6724C2.6487 18.0191 1.35316 18.1182 0.0755157 17.9639C2.30583 19.3982 4.90213 20.1597 7.55385 20.1572C16.529 20.1572 21.4372 12.722 21.4372 6.27385C21.4372 6.06385 21.4313 5.85152 21.422 5.64385C22.3774 4.95338 23.2019 4.09804 23.8568 3.11802L23.8557 3.11685Z" fill="black"/>
</svg>
